<svg width="400" height="300" viewBox="0 0 400 300" fill="none" xmlns="http://www.w3.org/2000/svg">
  <!-- Background -->
  <rect width="400" height="300" fill="#8a733a"/>
  
  <!-- Main terrain -->
  <rect x="50" y="50" width="300" height="200" fill="#f4bc3a"/>
  
  <!-- Desert areas -->
  <rect x="100" y="100" width="200" height="100" fill="#684a30"/>
  
  <!-- Water bodies -->
  <ellipse cx="120" cy="80" rx="15" ry="10" fill="#87ceeb"/>
  <ellipse cx="280" cy="220" rx="12" ry="8" fill="#87ceeb"/>
  
  <!-- Forest areas -->
  <circle cx="80" cy="180" r="8" fill="#228b22"/>
  <circle cx="320" cy="120" r="10" fill="#228b22"/>
  <circle cx="90" cy="220" r="6" fill="#228b22"/>
  <circle cx="310" cy="200" r="7" fill="#228b22"/>
  
  <!-- Resource points -->
  <circle cx="150" cy="150" r="2" fill="#daa520"/>
  <circle cx="250" cy="160" r="2" fill="#daa520"/>
  <circle cx="180" cy="200" r="2" fill="#daa520"/>
  <circle cx="220" cy="120" r="2" fill="#daa520"/>
  
  <!-- Grid lines for minimap feel -->
  <line x1="0" y1="75" x2="400" y2="75" stroke="#8a733a" stroke-width="1" opacity="0.3"/>
  <line x1="0" y1="150" x2="400" y2="150" stroke="#8a733a" stroke-width="1" opacity="0.3"/>
  <line x1="0" y1="225" x2="400" y2="225" stroke="#8a733a" stroke-width="1" opacity="0.3"/>
  <line x1="100" y1="0" x2="100" y2="300" stroke="#8a733a" stroke-width="1" opacity="0.3"/>
  <line x1="200" y1="0" x2="200" y2="300" stroke="#8a733a" stroke-width="1" opacity="0.3"/>
  <line x1="300" y1="0" x2="300" y2="300" stroke="#8a733a" stroke-width="1" opacity="0.3"/>
</svg> 